<svg viewBox="0 0 1920 1080" xmlns="http://www.w3.org/2000/svg"><g fill="#fff"><path d="m983.35 826.67a4.84 4.84 0 0 1 -1.49 2 4 4 0 0 1 -2.46.74h-7.9q-3.42 0-3.42-2.61c0-.34 0-.63 0-.85a5.61 5.61 0 0 1 .12-.64 4.25 4.25 0 0 1 .14-.52l43-103.26c.1-.24.22-.53.37-.85a3.72 3.72 0 0 1 .6-.9 3.11 3.11 0 0 1 1.08-.7 4.94 4.94 0 0 1 1.9-.3h4.92a4.7 4.7 0 0 1 1.82.3 3.11 3.11 0 0 1 1.08.7 3.72 3.72 0 0 1 .6.9c.15.32.27.61.37.85l42.61 103.26.15.75c.05.25.1.48.15.7a2.76 2.76 0 0 1 .08.56c0 1.74-1.15 2.61-3.43 2.61h-7.9a4 4 0 0 1 -2.46-.74 4.84 4.84 0 0 1 -1.49-2l-8.19-20.48h-52.3q-2.61 6.63-4.77 12t-3.18 8.48zm13.93-34.94h40.6l-20.11-51z"/><path d="m1087 793.68q1.26 1.05 3.24 2.79a43.1 43.1 0 0 0 4.5 3.47 38.2 38.2 0 0 0 7.53 3.95 21.89 21.89 0 0 0 7.82 1.41 20.42 20.42 0 0 0 6.37-.85 10.77 10.77 0 0 0 4.06-2.27 8.11 8.11 0 0 0 2.12-3.28 12 12 0 0 0 .64-3.95 5.86 5.86 0 0 0 -1.75-4.13 18.27 18.27 0 0 0 -4.29-3.23 35.64 35.64 0 0 0 -5.29-2.42q-2.75-1-4.76-1.68a109.44 109.44 0 0 1 -15.65-6.73 48.38 48.38 0 0 1 -11.17-8 28.88 28.88 0 0 1 -8.94-21.63 28.06 28.06 0 0 1 2.79-12.58 27.65 27.65 0 0 1 8-9.68 38.21 38.21 0 0 1 12.48-6.21 56.65 56.65 0 0 1 16.31-2.2 54.34 54.34 0 0 1 13 1.53 49.8 49.8 0 0 1 12.25 4.88q2.54 1.49 4.81 3.09t4 3.09a19.49 19.49 0 0 1 2.72 2.83 4.16 4.16 0 0 1 1 2.31 3.46 3.46 0 0 1 -.49 1.79 11.51 11.51 0 0 1 -1.45 1.87l-11.45 12.15a3.67 3.67 0 0 1 -2.53 1.27 3.23 3.23 0 0 1 -1.9-.6 23.23 23.23 0 0 1 -1.9-1.49l-.67-.6c-1-.84-2.1-1.71-3.32-2.6a29.55 29.55 0 0 0 -3.91-2.43 26.88 26.88 0 0 0 -4.39-1.78 16 16 0 0 0 -4.7-.71 25.05 25.05 0 0 0 -4.62.41 13.08 13.08 0 0 0 -3.8 1.3 7.21 7.21 0 0 0 -2.6 2.35 6.86 6.86 0 0 0 .07 7.15 10.39 10.39 0 0 0 3.13 2.83 28.93 28.93 0 0 0 5.18 2.46c2.06.77 4.45 1.6 7.19 2.5q7.89 2.61 14.56 5.47a48.82 48.82 0 0 1 11.51 6.78 28 28 0 0 1 7.56 9.35 29.16 29.16 0 0 1 2.74 13.14 32.53 32.53 0 0 1 -3.35 14.86 33.86 33.86 0 0 1 -9.2 11.36 42.85 42.85 0 0 1 -13.75 7.26 54.32 54.32 0 0 1 -17 2.58 48.19 48.19 0 0 1 -16.84-3.07 64.57 64.57 0 0 1 -15.42-8.22 39.07 39.07 0 0 1 -5-4.26c-1.36-1.39-2.45-2.51-3.24-3.36l-.22-.22a.45.45 0 0 0 -.15-.19.48.48 0 0 1 -.15-.11.45.45 0 0 0 -.15-.19.48.48 0 0 1 -.15-.11c-1.14-1.24-1.71-2.24-1.71-3a4.24 4.24 0 0 1 1.71-2.84l12.86-12.29a4.82 4.82 0 0 1 2.53-1.12 2.77 2.77 0 0 1 1.42.45 14.4 14.4 0 0 1 1.81 1.35z"/><path d="m953 721.48a2.72 2.72 0 0 1 .7-1.94 2.67 2.67 0 0 1 2-.74h3.85a2.74 2.74 0 0 1 1.95.71 2.52 2.52 0 0 1 .78 2v105.33c0 1.79-.91 2.68-2.73 2.68h-3.85c-1.82 0-2.73-.89-2.73-2.68z"/><path d="m758.06 827.92a23.32 23.32 0 0 1 -1.45-2.75q-.65-1.42-1.23-2.91l-38.23-100.07a2 2 0 0 0 -.11-.67 1.81 1.81 0 0 1 -.11-.6c0-1.39.92-2.09 2.76-2.09h24a3.86 3.86 0 0 1 3.87 2.84l22.73 67.8q3.06-8.49 5.85-17t5.51-16.95q2.73-8.49 5.52-17t5.85-17a4 4 0 0 1 4.1-2.84h23.47a3.64 3.64 0 0 1 2.42.64 2.15 2.15 0 0 1 .71 1.68 3 3 0 0 1 -.08.82v.22l-38.46 100.22c-.25.7-.54 1.47-.89 2.31a16.66 16.66 0 0 1 -1.19 2.35 7.35 7.35 0 0 1 -1.57 1.82 3 3 0 0 1 -2 .75h-18.42a3 3 0 0 1 -3.05-1.57z"/><path d="m924.31 785.26a33.35 33.35 0 0 0 8.31-5.25 35.94 35.94 0 0 0 6.49-7.34 34.33 34.33 0 0 0 5.7-19.07 33.9 33.9 0 0 0 -2.69-13.45 34.76 34.76 0 0 0 -18.29-18.52 34.23 34.23 0 0 0 -13.52-2.83h-54.43a2.29 2.29 0 0 0 -1.8.71 2.53 2.53 0 0 0 -.64 1.78v3.51a2.42 2.42 0 0 0 .68 1.85 2.44 2.44 0 0 0 1.76.64h54.2a25.41 25.41 0 0 1 10.29 2.09 26.67 26.67 0 0 1 8.3 5.67 26.58 26.58 0 0 1 2.61 34.07 25.22 25.22 0 0 1 -5.62 5.63 27.27 27.27 0 0 1 -7.16 3.73 19.83 19.83 0 0 1 -5.59 1.12c-1.88.1-3.8.15-5.73.15h-29.59a2.32 2.32 0 0 0 -1.8.71 2.55 2.55 0 0 0 -.64 1.79v3.5a2.42 2.42 0 0 0 .68 1.86 2.49 2.49 0 0 0 1.76.64h32a30 30 0 0 0 3.47-.18 23.79 23.79 0 0 0 3-.56l18.33 40.61a2 2 0 0 0 1.94 1.41h4a9.28 9.28 0 0 0 2.08-.23 1.11 1.11 0 0 0 .82-.56 3.1 3.1 0 0 0 .15-1.11 3.83 3.83 0 0 0 -.37-1.34z"/><path d="m1051.3 701.67a.71.71 0 0 1 .25 0 .44.44 0 0 1 .19.1.4.4 0 0 1 .1.23l.21 1a.44.44 0 0 1 -.09.4.41.41 0 0 1 -.13.08 1 1 0 0 1 -.22 0 6 6 0 0 0 -1.59.45 6.13 6.13 0 0 0 -1.4.89 5.75 5.75 0 0 0 -1.38 1.91 5.82 5.82 0 0 0 -.51 2.13 5.48 5.48 0 0 0 .33 2.12 5.13 5.13 0 0 0 1.13 1.85 5.24 5.24 0 0 0 1.82 1.29 5.38 5.38 0 0 0 4.12.08 5.31 5.31 0 0 0 1.8-1.13 6 6 0 0 0 .55-.58 6.3 6.3 0 0 0 .83-1.55 9.36 9.36 0 0 0 .33-1.05.61.61 0 0 1 .15-.28.38.38 0 0 1 .4 0l1 .28a.69.69 0 0 1 .21.13.39.39 0 0 1 .08.43 7.35 7.35 0 0 1 -.76 2.13 7.21 7.21 0 0 1 -1.47 1.89 7.26 7.26 0 0 1 -3.42 1.82 7.08 7.08 0 0 1 -1.89.17 7.38 7.38 0 0 1 -1.87-.3 7.56 7.56 0 0 1 -1.75-.78 7.08 7.08 0 0 1 -1.54-1.27 7.41 7.41 0 0 1 -1.82-3.41 7.61 7.61 0 0 1 -.18-1.9 7.38 7.38 0 0 1 .3-1.87 7.91 7.91 0 0 1 .79-1.76 7.33 7.33 0 0 1 1.26-1.54 7.12 7.12 0 0 1 1.92-1.31 8 8 0 0 1 2.25-.65z"/><path d="m1059.08 694.46a7.51 7.51 0 0 1 1.79-.85 7 7 0 0 1 1.89-.33 7.47 7.47 0 0 1 1.89.15 7.57 7.57 0 0 1 1.8.64 7.71 7.71 0 0 1 2.9 2.6 7.51 7.51 0 0 1 .85 1.79 7.81 7.81 0 0 1 .33 1.89 7.47 7.47 0 0 1 -.16 1.89 7.2 7.2 0 0 1 -.63 1.79 7.51 7.51 0 0 1 -2.61 2.89 7 7 0 0 1 -1.8.85 7.23 7.23 0 0 1 -1.89.34 7.42 7.42 0 0 1 -3.67-.79 6.92 6.92 0 0 1 -1.58-1.08 7.1 7.1 0 0 1 -1.3-1.52 7.37 7.37 0 0 1 -1.19-3.68 8.09 8.09 0 0 1 .16-1.9 7.2 7.2 0 0 1 .63-1.79 7.45 7.45 0 0 1 2.59-2.89zm-.64 9.23a5.51 5.51 0 0 0 1 1.12 5.89 5.89 0 0 0 1.18.81 5.77 5.77 0 0 0 1.34.47 5.17 5.17 0 0 0 1.41.11 5.61 5.61 0 0 0 2.76-.88 5.58 5.58 0 0 0 1.92-2.15 5.34 5.34 0 0 0 .47-1.34 5.53 5.53 0 0 0 .12-1.41 6.33 6.33 0 0 0 -.25-1.41 5.49 5.49 0 0 0 -.64-1.34 5.33 5.33 0 0 0 -1.53-1.57 5.56 5.56 0 0 0 -4.07-.87 5.66 5.66 0 0 0 -3.15 1.77 5.77 5.77 0 0 0 -.8 1.19 5.34 5.34 0 0 0 -.47 1.34 5.49 5.49 0 0 0 -.12 1.4 5.36 5.36 0 0 0 .25 1.42 5.27 5.27 0 0 0 .58 1.34z"/><path d="m1082.53 696.81a.4.4 0 0 1 .32 0 .43.43 0 0 1 .25.26l.39.92a.45.45 0 0 1 0 .32.41.41 0 0 1 -.24.24l-7.6 3.24a.38.38 0 0 1 -.56-.23l-5.32-12.48a.44.44 0 0 1 0-.32.46.46 0 0 1 .26-.25l.92-.39a.4.4 0 0 1 .56.22l4.75 11.15z"/><path d="m1090.9 681.47a.4.4 0 0 1 .55.33l.24.93a.44.44 0 0 1 0 .34.42.42 0 0 1 -.31.22l-7.57 2 1 3.86 6-1.57a.5.5 0 0 1 .32 0 .41.41 0 0 1 .21.3l.25 1a.53.53 0 0 1 0 .33.42.42 0 0 1 -.28.21l-6 1.57 1.22 4.62 7.6-2a.4.4 0 0 1 .55.32l.26 1a.38.38 0 0 1 -.31.52l-9 2.38a.37.37 0 0 1 -.52-.28l-3.46-13.12a.39.39 0 0 1 .3-.54z"/><path d="m1106.64 680.76a.77.77 0 0 1 .19.17.4.4 0 0 1 .09.2.34.34 0 0 1 -.06.24l-.43.9a.44.44 0 0 1 -.31.26.31.31 0 0 1 -.16 0 .79.79 0 0 1 -.19-.09 5.75 5.75 0 0 0 -1.54-.61 6 6 0 0 0 -1.65-.15 5.77 5.77 0 0 0 -4 2.06 5.31 5.31 0 0 0 -1 1.88 5 5 0 0 0 -.23 2.15 5.25 5.25 0 0 0 .65 2.14 5.46 5.46 0 0 0 3.22 2.57 5.58 5.58 0 0 0 2.12.2 5.45 5.45 0 0 0 .79-.14 4 4 0 0 0 .78-.27 8.45 8.45 0 0 0 .83-.44c.28-.18.58-.39.89-.63a.63.63 0 0 1 .29-.14.41.41 0 0 1 .34.21l.64.86a.45.45 0 0 1 .09.22.4.4 0 0 1 -.19.39 7.62 7.62 0 0 1 -1.91 1.23 7.14 7.14 0 0 1 -2.32.6 7.34 7.34 0 0 1 -2-.07 7 7 0 0 1 -1.83-.57 7.58 7.58 0 0 1 -1.6-1 7.31 7.31 0 0 1 -2.21-3.07 7.57 7.57 0 0 1 -.38-3.92 7.16 7.16 0 0 1 .57-1.84 7.5 7.5 0 0 1 1-1.61 7.09 7.09 0 0 1 1.38-1.3 7.65 7.65 0 0 1 1.69-.92 7 7 0 0 1 1.94-.45 7.22 7.22 0 0 1 2.33.13 8 8 0 0 1 2.18.81z"/><path d="m1120.19 680.12a.53.53 0 0 1 .31.13.42.42 0 0 1 .14.32l-.06 1a.5.5 0 0 1 -.14.33.42.42 0 0 1 -.36.12l-4-.23-.69 12.07a.47.47 0 0 1 -.14.31.41.41 0 0 1 -.34.11h-1a.46.46 0 0 1 -.42-.48l.7-12.07-4.05-.23a.43.43 0 0 1 -.42-.5l.06-1a.4.4 0 0 1 .14-.31.52.52 0 0 1 .33-.1z"/><path d="m1123.88 681.16a.47.47 0 0 1 .16-.28.41.41 0 0 1 .33-.07l1 .16a.51.51 0 0 1 .29.17.41.41 0 0 1 .08.33l-2.18 13.39a.39.39 0 0 1 -.51.35l-1-.16a.38.38 0 0 1 -.35-.49z"/><path d="m1131 682.37c0 .26.06.61.1 1s.09.92.15 1.46.11 1.11.18 1.73.14 1.23.2 1.86.14 1.24.2 1.85.13 1.16.18 1.67.11 1 .15 1.37.08.7.11.92l.57-.73.85-1.08 1-1.33 1.14-1.46 1.14-1.48 1.07-1.37c.33-.43.63-.81.89-1.16s.48-.62.64-.83a.56.56 0 0 1 .26-.2.52.52 0 0 1 .33 0l1 .28c.29.09.41.24.35.46v.07a.56.56 0 0 0 0 .08v.08l-9 11.42-.08.1-.11.09a.5.5 0 0 1 -.16 0h-.25l-.62-.18a.69.69 0 0 1 -.21-.1.32.32 0 0 1 -.11-.13.35.35 0 0 1 0-.13s0-.09 0-.12l-1.69-14.49v-.02a.74.74 0 0 1 0-.19c.07-.22.24-.29.53-.21l1 .29a.46.46 0 0 1 .28.18.49.49 0 0 1 -.09.3z"/><path d="m1138.57 699a.65.65 0 0 1 -.29.16.49.49 0 0 1 -.33 0l-.94-.43c-.27-.12-.36-.29-.26-.49a.46.46 0 0 1 0-.1.43.43 0 0 1 0-.07l.05-.06 10.69-9.92.09-.08.11-.08a.47.47 0 0 1 .17 0 .49.49 0 0 1 .24.07l.59.26a1.16 1.16 0 0 1 .2.13.6.6 0 0 1 .09.15.59.59 0 0 1 0 .14v.12l-.53 14.55v.1a.29.29 0 0 1 0 .09.14.14 0 0 1 0 .07q-.13.32-.54.12l-.94-.42a.55.55 0 0 1 -.25-.22.58.58 0 0 1 -.07-.32l.13-2.88-6.2-2.83-1.21 1.17c-.37.29-.61.56-.8.77zm3.54-3.39 4.82 2.2.37-7.13z"/><path d="m1155.81 708.34a.65.65 0 0 1 -.32.09.59.59 0 0 1 -.31-.13l-.8-.64c-.23-.19-.28-.37-.14-.55l.08-.08.06-.06h.06l12.79-7h.11.13a.52.52 0 0 1 .17 0 .66.66 0 0 1 .22.13l.5.4a.65.65 0 0 1 .16.18.33.33 0 0 1 0 .16.71.71 0 0 1 0 .14v.11l-4.09 14v.09a.56.56 0 0 1 -.05.08v.07c-.15.17-.33.17-.57 0l-.8-.64a.52.52 0 0 1 -.19-.28.7.7 0 0 1 0-.32l.84-2.76-5.32-4.26-1.46.83zm4.26-2.42 4.14 3.32 2.11-6.83z"/><path d="m1170.84 714a5.4 5.4 0 0 0 -1.12 1.34 4 4 0 0 0 -.52 1.5 3.61 3.61 0 0 0 .14 1.56 4.2 4.2 0 0 0 .88 1.51 4.51 4.51 0 0 0 1.44 1.13 3.69 3.69 0 0 0 1.53.34 4.05 4.05 0 0 0 1.54-.35 5.61 5.61 0 0 0 1.44-1l6-5.3a.42.42 0 0 1 .31-.09.41.41 0 0 1 .31.16l.62.7a.55.55 0 0 1 .14.33.38.38 0 0 1 -.13.32l-6.24 5.47a6.06 6.06 0 0 1 -2.12 1.24 5.45 5.45 0 0 1 -2.25.27 5.63 5.63 0 0 1 -2.16-.62 6.09 6.09 0 0 1 -1.85-1.44 5.65 5.65 0 0 1 -1.17-2 6 6 0 0 1 -.29-2.26 6.19 6.19 0 0 1 .58-2.21 6 6 0 0 1 1.42-1.87l6.24-5.47a.44.44 0 0 1 .29-.1.35.35 0 0 1 .3.13l.68.78a.48.48 0 0 1 .11.31.37.37 0 0 1 -.13.31z"/><path d="m1186.28 720.11a.41.41 0 0 1 .63.14l2.33 3.89a7.28 7.28 0 0 1 1.09 3.7 6.65 6.65 0 0 1 -.22 1.83 6.79 6.79 0 0 1 -.68 1.7 7.62 7.62 0 0 1 -1.11 1.51 7.69 7.69 0 0 1 -1.54 1.21 7.26 7.26 0 0 1 -1.77.77 7.86 7.86 0 0 1 -1.85.26 7.51 7.51 0 0 1 -1.83-.22 7 7 0 0 1 -1.72-.69 7.14 7.14 0 0 1 -2.74-2.65l-2.33-3.89a.59.59 0 0 1 -.09-.31.35.35 0 0 1 .21-.28zm-7.84 10.46a5.51 5.51 0 0 0 1.5 1.64 5.3 5.3 0 0 0 1.9.88 5.52 5.52 0 0 0 2.07.08 5.63 5.63 0 0 0 2-.74 5.27 5.27 0 0 0 1.63-1.47 5.12 5.12 0 0 0 .86-3.87 5.77 5.77 0 0 0 -.76-2l-1.6-2.68-9.19 5.51z"/><path d="m1194.2 734.36a.4.4 0 0 1 .57.21l.4.93a.44.44 0 0 1 -.2.58l-12.41 5.5a.38.38 0 0 1 -.57-.23l-.41-.92a.39.39 0 0 1 .22-.57z"/><path d="m1199.45 746.73a7.4 7.4 0 0 1 .3 2 7.14 7.14 0 0 1 -.23 1.91 8 8 0 0 1 -.69 1.76 6.87 6.87 0 0 1 -1.13 1.54 7.37 7.37 0 0 1 -1.5 1.21 7.18 7.18 0 0 1 -1.83.81 7.34 7.34 0 0 1 -2 .3 7.07 7.07 0 0 1 -1.9-.23 7.21 7.21 0 0 1 -3.29-1.81 7.37 7.37 0 0 1 -1.21-1.5 7.18 7.18 0 0 1 -.81-1.83 7.53 7.53 0 0 1 -.3-2 7.14 7.14 0 0 1 .23-1.91 7.43 7.43 0 0 1 .7-1.76 7.19 7.19 0 0 1 2.6-2.73 7.18 7.18 0 0 1 1.83-.81 7.32 7.32 0 0 1 2-.29 7.18 7.18 0 0 1 1.91.22 7.51 7.51 0 0 1 1.77.7 7 7 0 0 1 1.53 1.11 7.37 7.37 0 0 1 1.21 1.5 7 7 0 0 1 .81 1.81zm-8.65-3.27a5.14 5.14 0 0 0 -1.35.6 5.82 5.82 0 0 0 -1.12.9 5.52 5.52 0 0 0 -.83 1.15 5.12 5.12 0 0 0 -.52 1.31 5.71 5.71 0 0 0 -.17 1.43 5.34 5.34 0 0 0 .22 1.47 5.45 5.45 0 0 0 .6 1.35 5.19 5.19 0 0 0 .91 1.11 5.25 5.25 0 0 0 1.14.84 5.4 5.4 0 0 0 1.32.51 5.58 5.58 0 0 0 1.42.17 5.34 5.34 0 0 0 1.47-.22 5.24 5.24 0 0 0 1.94-1 5.56 5.56 0 0 0 1.36-1.63 5.66 5.66 0 0 0 .65-2 5.3 5.3 0 0 0 -.19-2.19 5.36 5.36 0 0 0 -.6-1.36 6.07 6.07 0 0 0 -.9-1.11 5.33 5.33 0 0 0 -2.46-1.35 5.16 5.16 0 0 0 -1.42-.17 5.34 5.34 0 0 0 -1.47.19z"/><path d="m1201.6 758.48c-.24.11-.54.27-.93.48l-1.3.68-1.53.82-1.65.88-1.63.88-1.49.8-1.21.65-.82.44.89.25 1.32.39 1.62.46 1.79.5 1.79.51 1.68.47 1.41.4 1 .27a.73.73 0 0 1 .28.17.55.55 0 0 1 .13.31l.11 1c0 .3-.07.47-.29.49h-.27l-14-4.1h-.12a.31.31 0 0 1 -.13-.06.49.49 0 0 1 -.1-.13.68.68 0 0 1 -.07-.24l-.06-.64a.61.61 0 0 1 0-.24.27.27 0 0 1 .08-.15.28.28 0 0 1 .1-.09l.11-.06 12.79-7h.07.19c.23 0 .35.12.39.41l.1 1a.44.44 0 0 1 -.06.32.52.52 0 0 1 -.19.13z"/><path d="m1202.54 772.7a.44.44 0 0 1 .3.12.4.4 0 0 1 .12.31v1a.45.45 0 0 1 -.12.31.38.38 0 0 1 -.31.14l-13.57-.12q-.42 0-.42-.45v-1a.37.37 0 0 1 .43-.42z"/><path d="m1198.8 786.78c.07-.08.2-.22.39-.4a6.51 6.51 0 0 0 .6-.7 6.68 6.68 0 0 0 .59-.95 3.52 3.52 0 0 0 .35-1.18 4.2 4.2 0 0 0 0-1.34 2.79 2.79 0 0 0 -.38-1 1.94 1.94 0 0 0 -1.37-.87 1.26 1.26 0 0 0 -1 .25 3.18 3.18 0 0 0 -.75.88 8.83 8.83 0 0 0 -.64 1.27c-.21.49-.42 1-.64 1.47s-.46 1-.72 1.47a5.81 5.81 0 0 1 -.9 1.24 3.53 3.53 0 0 1 -1.17.83 3.06 3.06 0 0 1 -1.54.18 4 4 0 0 1 -1.79-.64 4.29 4.29 0 0 1 -1.27-1.31 5.31 5.31 0 0 1 -.7-1.82 6.68 6.68 0 0 1 -.07-2.15 6.74 6.74 0 0 1 1-2.83 6.68 6.68 0 0 1 .94-1.18 5.93 5.93 0 0 1 1.18-.92.45.45 0 0 1 .32-.09.38.38 0 0 1 .27.2l.55.84a.43.43 0 0 1 .08.33.42.42 0 0 1 -.2.26l-.14.11a5 5 0 0 0 -.89.83 6.49 6.49 0 0 0 -.67 1 5 5 0 0 0 -.44.95 3.38 3.38 0 0 0 -.2.79 5 5 0 0 0 0 1.22 3.9 3.9 0 0 0 .34 1.19 2.81 2.81 0 0 0 .71.93 2 2 0 0 0 1.1.46 1.34 1.34 0 0 0 1-.21 2.82 2.82 0 0 0 .77-.8 8.06 8.06 0 0 0 .66-1.22c.21-.48.43-1 .66-1.52a15.43 15.43 0 0 1 1-1.91 5.58 5.58 0 0 1 1-1.27 2.93 2.93 0 0 1 1.09-.67 3.17 3.17 0 0 1 1.28-.1 3.72 3.72 0 0 1 1.57.54 3.79 3.79 0 0 1 1.14 1.15 4.86 4.86 0 0 1 .64 1.65 6.8 6.8 0 0 1 0 2.08 4.86 4.86 0 0 1 -.3 1.24 6.91 6.91 0 0 1 -.58 1.23 6.59 6.59 0 0 1 -.79 1.09 5.36 5.36 0 0 1 -1 .84.45.45 0 0 1 -.32.11.39.39 0 0 1 -.28-.19l-.58-.76a.4.4 0 0 1 .08-.61z"/><path d="m1192.22 792.83a5.48 5.48 0 0 0 -1.72-.23 4.15 4.15 0 0 0 -1.55.37 3.49 3.49 0 0 0 -1.24 1 4 4 0 0 0 -.81 1.54 4.53 4.53 0 0 0 -.18 1.82 3.46 3.46 0 0 0 .54 1.48 3.91 3.91 0 0 0 1.11 1.11 6.09 6.09 0 0 0 1.57.72l7.71 2.26a.37.37 0 0 1 .25.21.42.42 0 0 1 0 .35l-.26.89a.47.47 0 0 1 -.21.29.37.37 0 0 1 -.34.07l-8-2.34a6.12 6.12 0 0 1 -2.17-1.12 5.61 5.61 0 0 1 -1.44-1.76 5.83 5.83 0 0 1 -.64-2.16 6.2 6.2 0 0 1 .23-2.33 5.7 5.7 0 0 1 1.1-2.08 6.12 6.12 0 0 1 1.75-1.46 6.32 6.32 0 0 1 2.18-.69 5.86 5.86 0 0 1 2.34.2l8 2.34a.43.43 0 0 1 .24.19.33.33 0 0 1 0 .32l-.29 1a.53.53 0 0 1 -.21.25.34.34 0 0 1 -.33.06z"/><path d="m1182.8 803.64a.58.58 0 0 1 -.15-.29.57.57 0 0 1 0-.33l.46-.92c.13-.27.3-.35.5-.25h.1a.15.15 0 0 1 .06.05h.06l9.62 11 .08.09a.35.35 0 0 1 .07.12.72.72 0 0 1 0 .17.83.83 0 0 1 -.08.24l-.28.57a.64.64 0 0 1 -.14.2.41.41 0 0 1 -.14.08.36.36 0 0 1 -.14 0h-.12l-14.54-.94h-.09-.09-.07c-.21-.1-.24-.29-.11-.55l.45-.93a.45.45 0 0 1 .23-.24.56.56 0 0 1 .32-.06l2.87.21 3-6.12-1.13-1.24q-.44-.56-.74-.86zm3.29 3.64-2.33 4.75 7.12.57z"/><path d="m1173.2 822.85a.45.45 0 0 1 -.27.18.47.47 0 0 1 -.35-.09l-.82-.58a.37.37 0 0 1 -.18-.26.44.44 0 0 1 .07-.33l4.74-6.76a.37.37 0 0 1 .59-.11l11.12 7.78a.41.41 0 0 1 .18.27.4.4 0 0 1 -.08.34l-.58.82a.43.43 0 0 1 -.26.19.38.38 0 0 1 -.33-.08l-9.93-7z"/><path d="m815.45 798.45h44.08a2.58 2.58 0 0 0 2.3-3.54l-21.83-57.91a2.43 2.43 0 0 0 -4.59 0l-22.25 57.9a2.57 2.57 0 0 0 2.29 3.55z"/></g><path d="m854.91 803.75h-34.84a2 2 0 0 0 -1.82 2.67l17.26 28.34a2 2 0 0 0 3.63 0l17.58-28.35a2 2 0 0 0 -1.81-2.66z" fill="#682579"/></svg>